<svg xmlns="http://www.w3.org/2000/svg" width="18" height="19" fill="none"><path fill="#404040" d="M13 5H9.75V4c0-.41.34-.75.75-.75h1c1.24 0 2.25-1.01 2.25-2.25 0-.41-.34-.75-.75-.75s-.75.34-.75.75-.34.75-.75.75h-1C9.26 1.75 8.25 2.76 8.25 4v1H5c-3 0-5 2-5 6v4c0 2 1 4 3 4h.253c1.09 0 2.11-.547 2.712-1.457C5.965 17.543 6.972 16 9 16c2.028 0 3.034 1.552 3.034 1.552A3.252 3.252 0 0 0 14.74 19H15c2 0 3-2 3-4v-4c0-4-2-6-5-6Zm-6 6.75H5.75V13a.75.75 0 0 1-1.5 0v-1.25H3a.75.75 0 0 1 0-1.5h1.25V9a.75.75 0 0 1 1.5 0v1.25H7a.75.75 0 0 1 0 1.5Zm4.75 1.5a1 1 0 1 1 0-2 1 1 0 0 1 0 2Zm2.5-2.499a1 1 0 1 1 0-2 1 1 0 0 1 0 2Z"/></svg>