<svg xmlns="http://www.w3.org/2000/svg" width="20" height="20" fill="none"><path fill="#404040" d="M18.944 8.82a1.252 1.252 0 0 1-.944.43h-6.008a1.243 1.243 0 0 1-1.242-1.242V2A1.251 1.251 0 0 1 12.162.762a8.341 8.341 0 0 1 7.076 7.076c.05.352-.058.71-.294.981Zm-1.963 2.783a1.207 1.207 0 0 0-.938-.446h-5.95c-.69 0-1.25-.56-1.25-1.25v-5.95a1.21 1.21 0 0 0-.446-.939 1.173 1.173 0 0 0-.972-.245 8.38 8.38 0 0 0-5.303 3.583C.892 8.221.47 10.48.934 12.712c.655 3.144 3.208 5.696 6.353 6.352a8.68 8.68 0 0 0 1.777.185 8.272 8.272 0 0 0 4.578-1.37 8.383 8.383 0 0 0 3.583-5.304 1.155 1.155 0 0 0-.244-.972Z"/></svg>