<svg xmlns="http://www.w3.org/2000/svg" width="20" height="20" fill="none"><path fill="#404040" d="M5.208 18.156c-.791.79-3.545 1.494-4.09 1.627a.5.5 0 0 1-.602-.615c.152-.567.943-3.438 1.73-4.225a2.223 2.223 0 0 1 1.596-.665c.559.013 1.096.25 1.51.665.847.847.782 2.288-.144 3.213Zm10-5.127-.258 1.57c-.3 1.89-1.6 3.5-3.38 4.21l-2.38.95a.49.49 0 0 1-.51-.08.484.484 0 0 1-.17-.48l.663-3.335c-.097.019-.19.045-.288.062a2.165 2.165 0 0 1-.367.03 2.257 2.257 0 0 1-1.588-.665l-1.922-1.923a2.234 2.234 0 0 1-.635-1.955c.017-.097.043-.188.06-.284l-3.314.659c-.03.01-.07.01-.1.01-.15 0-.29-.06-.38-.18a.498.498 0 0 1-.08-.51l.96-2.39c.7-1.77 2.31-3.07 4.2-3.37l1.55-.26C9.832 2.153 13.854.548 18.999.548a.75.75 0 0 1 .75.75c.002 5.149-1.602 9.17-4.54 11.732Zm1.76-5.034a4.98 4.98 0 0 0-4.664-4.665C9.404 4.579 6.66 7 5.85 11.67a.741.741 0 0 0 .218.637L7.99 14.23a.748.748 0 0 0 .638.217c4.67-.81 7.092-3.552 8.34-6.452ZM11.5 6.55a2.25 2.25 0 1 0-.001 4.499 2.25 2.25 0 0 0 0-4.5Z"/></svg>