<svg xmlns="http://www.w3.org/2000/svg" width="24" height="25" fill="none"><path fill="#404040" d="M21.75 12.3c0 1.505-.21 3.093-.59 4.634-.007.033-.006.066-.014.098-.018.072-.042.14-.061.213-.028.108-.062.212-.092.32-.094.343-.183.688-.292 1.02l-.471 1.525a2.758 2.758 0 0 1-3.432 1.82l-.966-.295a1.739 1.739 0 0 1-1.034-.853 1.734 1.734 0 0 1-.127-1.333l1.484-4.854c.137-.448.44-.815.853-1.034.415-.22.891-.264 1.334-.127l.942.289c.317.097.6.253.85.444.07-.63.116-1.257.116-1.866 0-4.55-3.701-8.25-8.25-8.25-4.549 0-8.25 3.7-8.25 8.25 0 .609.046 1.235.116 1.865.25-.191.533-.347.85-.444l.942-.29c.444-.137.92-.092 1.334.128.413.219.716.586.853 1.034l1.484 4.856c.138.446.092.92-.127 1.333-.22.414-.588.716-1.035.853l-.965.295a2.758 2.758 0 0 1-3.432-1.82l-.473-1.533c-.108-.327-.2-.678-.294-1.024-.028-.104-.062-.203-.088-.31-.019-.072-.043-.138-.061-.211-.008-.033-.007-.065-.014-.098-.38-1.54-.59-3.13-.59-4.634 0-5.376 4.374-9.75 9.75-9.75s9.75 4.373 9.75 9.749Z"/></svg>