<svg width="171" height="52" viewBox="0 0 171 52" fill="none" xmlns="http://www.w3.org/2000/svg">
<path d="M34.8776 13.3152C35.4569 12.3076 35.7549 11.1207 35.6727 9.87005C35.6015 8.78808 35.2542 7.79162 34.7047 6.94629C34.6823 6.95646 34.6599 6.96663 34.638 6.97726C34.8973 7.53834 35.0598 8.15628 35.1031 8.81166C35.1825 10.0189 34.843 11.1563 34.2108 12.0784C34.1871 12.1283 34.1542 12.1736 34.1159 12.2124C34.0332 12.2956 33.9219 12.3501 33.7973 12.3584C33.6498 12.3686 33.5125 12.3122 33.4148 12.2147C33.3778 12.1782 33.3459 12.1352 33.3217 12.0881C33.0574 11.7105 32.8657 11.276 32.7685 10.8037C32.779 10.8938 32.7867 10.9848 32.7927 11.0768C32.8534 12.0039 32.7055 12.8969 32.3887 13.7071C31.9893 14.7285 31.3225 15.6187 30.4703 16.2833C32.3709 16.036 33.9693 14.8967 34.8776 13.3152Z" fill="#272727"/>
<path d="M32.9606 21.4888C30.3512 23.8603 26.4894 24.6617 26.1064 27.2804C25.7413 29.7762 28.7994 30.6082 29.9404 29.4065C31.0815 28.2048 30.8989 26.4023 30.8989 26.4023C31.7178 27.6599 32.0345 29.1181 31.7059 30.5924C31.4485 31.7493 30.7985 32.8155 29.9204 33.5952C29.0271 34.3888 27.8952 34.8843 26.7121 34.9966C26.5578 35.0114 26.4031 35.0197 26.2484 35.0215C26.2237 35.022 26.1995 35.022 26.1749 35.022C26.1502 35.022 26.126 35.022 26.1014 35.0215C22.1523 34.9818 18.9633 31.7276 18.9633 27.7195C18.9633 27.1889 19.0189 26.6718 19.1253 26.1731C19.5448 24.2032 20.7493 22.5288 22.3906 21.5018C23.3728 20.7766 24.4208 20.1943 25.487 19.6933C27.9613 18.5309 30.5374 17.8076 32.6361 16.7552C32.658 16.7441 32.6799 16.733 32.7018 16.7219C32.7265 16.7094 32.7507 16.6974 32.7744 16.6859C32.7804 16.6826 32.7863 16.6798 32.7927 16.6771C34.9539 15.5655 36.4838 13.3771 36.6938 10.8092C36.7102 10.6095 36.7184 10.4071 36.7184 10.2028C36.7184 10.1672 36.718 10.1316 36.7175 10.0961C36.7139 9.84417 36.6979 9.59505 36.6696 9.3501C38.515 12.7726 37.3803 17.6208 32.9606 21.4888Z" fill="#272727"/>
<path d="M41.5973 26.4431C41.5777 26.249 41.4412 26.0872 41.2545 26.0369L38.834 25.3819C38.6688 25.3371 38.5415 25.204 38.5022 25.0358V25.0381C38.2101 23.7837 37.7427 22.5978 37.1288 21.5075C36.1557 22.7198 35.2018 23.6691 34.6362 24.1997C35.1484 25.4023 35.4332 26.7274 35.4332 28.1204C35.4332 33.5898 31.0528 38.0259 25.6509 38.0259C20.2482 38.0259 15.8673 33.5903 15.8673 28.1204C15.8673 24.1193 18.2102 20.6723 21.5823 19.1087C21.5832 19.1083 21.5846 19.1074 21.5855 19.1069C24.5619 17.4574 26.9381 16.1596 28.3206 14.6436L27.7072 12.3188C27.6574 12.1303 27.4977 11.9921 27.306 11.9722C26.7614 11.9153 26.2087 11.8862 25.6496 11.8862C25.0909 11.8862 24.5391 11.9153 23.995 11.9717C23.8033 11.9916 23.6435 12.1298 23.5938 12.3188L22.9466 14.7693C22.9023 14.9366 22.7709 15.0656 22.6047 15.1053H22.607C21.2085 15.4395 19.8958 15.9992 18.7082 16.7438L18.715 16.7368C18.5699 16.8274 18.3873 16.8297 18.2399 16.7433L16.0713 15.4732C15.9043 15.3752 15.6952 15.3919 15.5455 15.5153C15.1206 15.8652 14.7098 16.24 14.3141 16.6407C13.9193 17.0405 13.5491 17.4564 13.204 17.8858C13.0822 18.0374 13.0657 18.2496 13.1625 18.4187L14.4168 20.615C14.5026 20.7647 14.4994 20.9501 14.4095 21.0975L14.4163 21.0906C13.681 22.2932 13.1283 23.6224 12.7983 25.0385V25.0362C12.759 25.2045 12.6317 25.3367 12.4669 25.3815L10.046 26.0369C9.85977 26.0872 9.7233 26.249 9.70367 26.4431C9.64753 26.9945 9.61877 27.5537 9.61877 28.1204C9.61877 28.6861 9.64753 29.2449 9.70321 29.7958C9.72284 29.9899 9.85931 30.1517 10.046 30.202L12.4665 30.857C12.6317 30.9018 12.759 31.0349 12.7983 31.2031V31.2022C13.1283 32.6179 13.6806 33.9462 14.4154 35.1483L14.4095 35.1423C14.4989 35.2893 14.5012 35.4742 14.4159 35.6234L13.1616 37.8193C13.0648 37.9884 13.0813 38.2001 13.2031 38.3517C13.5487 38.782 13.9188 39.198 14.3145 39.5987C14.7094 39.9985 15.1201 40.3733 15.5442 40.7227C15.6939 40.8461 15.9034 40.8627 16.0704 40.7647L18.2394 39.4947C18.3873 39.4078 18.5703 39.411 18.7159 39.5021L18.7095 39.4956C19.8972 40.2402 21.2094 40.7994 22.6084 41.1336H22.6061C22.7722 41.1733 22.9028 41.3023 22.947 41.4691L23.5938 43.9201C23.6435 44.1086 23.8033 44.2468 23.995 44.2667C24.5395 44.3236 25.0923 44.3527 25.6514 44.3527C26.2101 44.3527 26.7619 44.3236 27.306 44.2672C27.4977 44.2473 27.6574 44.1091 27.7072 43.9201L28.3539 41.4691C28.3982 41.3018 28.5296 41.1729 28.6958 41.1331H28.6949C30.0925 40.799 31.4043 40.2397 32.5914 39.4956L32.586 39.5011C32.7311 39.4106 32.9137 39.4082 33.0611 39.4947L35.2296 40.7647C35.3967 40.8627 35.6057 40.8461 35.7554 40.7227C36.1804 40.3728 36.5911 39.998 36.9869 39.5973C37.3817 39.1975 37.7518 38.7815 38.0969 38.3522C38.2188 38.2006 38.2352 37.9884 38.1384 37.8193L36.8842 35.623C36.7984 35.4732 36.8016 35.2879 36.8915 35.1405L36.8855 35.1465C37.6204 33.9443 38.1727 32.616 38.5022 31.2008V31.2017C38.5415 31.0335 38.6688 30.9013 38.8336 30.8565L41.254 30.2016C41.4403 30.1512 41.5767 29.9894 41.5964 29.7953C41.6525 29.2439 41.6813 28.6842 41.6813 28.1181C41.6817 27.5528 41.653 26.994 41.5973 26.4431Z" fill="#272727"/>
<path d="M61.2607 32.6499V17.6874H70.6657V20.2524H64.0822V23.8648H70.1527V26.4298H64.0822V32.6499H61.2607ZM77.7253 32.9492C76.6708 32.9492 75.7232 32.7354 74.8824 32.3079C74.0417 31.8804 73.3791 31.2605 72.8946 30.4483C72.4101 29.636 72.1678 28.6599 72.1678 27.5199V27.1779C72.1678 26.0379 72.4101 25.0618 72.8946 24.2495C73.3791 23.4373 74.0417 22.8174 74.8824 22.3899C75.7232 21.9624 76.6708 21.7487 77.7253 21.7487C78.7798 21.7487 79.7274 21.9624 80.5682 22.3899C81.4089 22.8174 82.0716 23.4373 82.5561 24.2495C83.0406 25.0618 83.2828 26.0379 83.2828 27.1779V27.5199C83.2828 28.6599 83.0406 29.636 82.5561 30.4483C82.0716 31.2605 81.4089 31.8804 80.5682 32.3079C79.7274 32.7354 78.7798 32.9492 77.7253 32.9492ZM77.7253 30.5552C78.5518 30.5552 79.2358 30.2915 79.7773 29.7643C80.3188 29.2228 80.5896 28.4533 80.5896 27.4558V27.242C80.5896 26.2445 80.3188 25.4822 79.7773 24.9549C79.2501 24.4134 78.5661 24.1427 77.7253 24.1427C76.8988 24.1427 76.2148 24.4134 75.6733 24.9549C75.1318 25.4822 74.8611 26.2445 74.8611 27.242V27.4558C74.8611 28.4533 75.1318 29.2228 75.6733 29.7643C76.2148 30.2915 76.8988 30.5552 77.7253 30.5552ZM85.7688 32.6499V22.0479H88.4193V23.2449H88.8041C88.9608 22.8174 89.2173 22.5039 89.5736 22.3044C89.9441 22.1049 90.3716 22.0052 90.8561 22.0052H92.1386V24.3992H90.8133C90.1293 24.3992 89.5665 24.5844 89.1247 24.9549C88.683 25.3112 88.4621 25.8669 88.4621 26.6222V32.6499H85.7688ZM93.355 27.3917V27.0497C93.355 25.9382 93.5758 24.9905 94.0176 24.2068C94.4593 23.4088 95.0436 22.8032 95.7703 22.3899C96.5113 21.9624 97.3165 21.7487 98.1857 21.7487C99.1547 21.7487 99.8886 21.9197 100.387 22.2617C100.886 22.6037 101.249 22.9599 101.477 23.3304H101.862V22.0479H104.513V34.5309C104.513 35.2577 104.299 35.8348 103.871 36.2623C103.444 36.704 102.874 36.9249 102.161 36.9249H95.065V34.5737H101.221C101.62 34.5737 101.819 34.3599 101.819 33.9324V31.175H101.435C101.292 31.403 101.093 31.6382 100.836 31.8804C100.58 32.1084 100.238 32.3008 99.8102 32.4575C99.3827 32.6143 98.8412 32.6927 98.1857 32.6927C97.3165 32.6927 96.5113 32.486 95.7703 32.0728C95.0436 31.6453 94.4593 31.0397 94.0176 30.2559C93.5758 29.4579 93.355 28.5032 93.355 27.3917ZM98.9552 30.3414C99.7817 30.3414 100.473 30.0778 101.029 29.5505C101.584 29.0233 101.862 28.2823 101.862 27.3275V27.1138C101.862 26.1448 101.584 25.4038 101.029 24.8908C100.487 24.3635 99.796 24.0999 98.9552 24.0999C98.1287 24.0999 97.4376 24.3635 96.8818 24.8908C96.3261 25.4038 96.0482 26.1448 96.0482 27.1138V27.3275C96.0482 28.2823 96.3261 29.0233 96.8818 29.5505C97.4376 30.0778 98.1287 30.3414 98.9552 30.3414ZM112.329 32.9492C111.275 32.9492 110.342 32.7283 109.529 32.2865C108.731 31.8305 108.104 31.1964 107.648 30.3842C107.207 29.5577 106.986 28.5887 106.986 27.4772V27.2207C106.986 26.1092 107.207 25.1473 107.648 24.335C108.09 23.5085 108.71 22.8744 109.508 22.4327C110.306 21.9767 111.232 21.7487 112.287 21.7487C113.327 21.7487 114.232 21.9838 115.001 22.454C115.771 22.91 116.369 23.5513 116.797 24.3778C117.224 25.19 117.438 26.1377 117.438 27.2207V28.1398H109.722C109.75 28.8665 110.021 29.4579 110.534 29.9139C111.047 30.3699 111.674 30.5979 112.415 30.5979C113.17 30.5979 113.726 30.434 114.082 30.1063C114.438 29.7785 114.709 29.4152 114.894 29.0162L117.096 30.1704C116.897 30.5409 116.604 30.947 116.22 31.3888C115.849 31.8163 115.35 32.1868 114.723 32.5003C114.096 32.7995 113.298 32.9492 112.329 32.9492ZM109.743 26.1305H114.702C114.645 25.5178 114.396 25.0262 113.954 24.6557C113.526 24.2852 112.964 24.0999 112.265 24.0999C111.539 24.0999 110.961 24.2852 110.534 24.6557C110.106 25.0262 109.843 25.5178 109.743 26.1305ZM126.205 32.9492C125.25 32.9492 124.516 32.7853 124.003 32.4575C123.49 32.1298 123.113 31.7664 122.87 31.3674H122.486V32.6499H119.835V17.6874H122.528V23.2663H122.913C123.07 23.0098 123.277 22.7675 123.533 22.5395C123.804 22.3115 124.153 22.1263 124.58 21.9838C125.022 21.827 125.564 21.7487 126.205 21.7487C127.06 21.7487 127.851 21.9624 128.578 22.3899C129.304 22.8032 129.889 23.4159 130.33 24.2282C130.772 25.0404 130.993 26.0237 130.993 27.1779V27.5199C130.993 28.6742 130.772 29.6574 130.33 30.4697C129.889 31.2819 129.304 31.9018 128.578 32.3293C127.851 32.7425 127.06 32.9492 126.205 32.9492ZM125.393 30.5979C126.219 30.5979 126.91 30.3343 127.466 29.807C128.022 29.2655 128.3 28.4818 128.3 27.4558V27.242C128.3 26.216 128.022 25.4394 127.466 24.9122C126.925 24.3707 126.233 24.0999 125.393 24.0999C124.566 24.0999 123.875 24.3707 123.319 24.9122C122.764 25.4394 122.486 26.216 122.486 27.242V27.4558C122.486 28.4818 122.764 29.2655 123.319 29.807C123.875 30.3343 124.566 30.5979 125.393 30.5979ZM133.466 32.6499V17.6874H136.159V32.6499H133.466ZM142.435 32.9492C141.68 32.9492 141.003 32.8209 140.405 32.5644C139.806 32.2937 139.329 31.9089 138.973 31.4102C138.631 30.8972 138.46 30.2773 138.46 29.5505C138.46 28.8238 138.631 28.2182 138.973 27.7337C139.329 27.2349 139.813 26.8644 140.426 26.6222C141.053 26.3657 141.766 26.2374 142.564 26.2374H145.471V25.6389C145.471 25.1402 145.314 24.734 145 24.4205C144.687 24.0928 144.188 23.9289 143.504 23.9289C142.834 23.9289 142.336 24.0857 142.008 24.3992C141.68 24.6984 141.466 25.0903 141.367 25.5748L138.887 24.7412C139.058 24.1997 139.329 23.708 139.699 23.2663C140.084 22.8103 140.59 22.4469 141.217 22.1762C141.858 21.8912 142.635 21.7487 143.547 21.7487C144.943 21.7487 146.048 22.0978 146.86 22.796C147.672 23.4943 148.078 24.506 148.078 25.8313V29.7857C148.078 30.2132 148.278 30.4269 148.677 30.4269H149.532V32.6499H147.736C147.209 32.6499 146.775 32.5217 146.433 32.2652C146.091 32.0087 145.92 31.6667 145.92 31.2392V31.2178H145.513C145.456 31.3888 145.328 31.6168 145.129 31.9018C144.929 32.1725 144.616 32.4148 144.188 32.6285C143.761 32.8423 143.176 32.9492 142.435 32.9492ZM142.906 30.7689C143.661 30.7689 144.274 30.5623 144.744 30.149C145.228 29.7215 145.471 29.1587 145.471 28.4604V28.2467H142.756C142.257 28.2467 141.865 28.3535 141.58 28.5673C141.295 28.781 141.153 29.0803 141.153 29.465C141.153 29.8498 141.303 30.1633 141.602 30.4055C141.901 30.6478 142.336 30.7689 142.906 30.7689ZM155.821 32.9492C154.439 32.9492 153.306 32.6499 152.422 32.0514C151.539 31.4529 151.004 30.5979 150.819 29.4864L153.299 28.8452C153.398 29.3439 153.562 29.7358 153.79 30.0208C154.033 30.3058 154.325 30.5124 154.667 30.6407C155.023 30.7547 155.408 30.8117 155.821 30.8117C156.448 30.8117 156.911 30.7048 157.21 30.491C157.51 30.263 157.659 29.9852 157.659 29.6574C157.659 29.3297 157.517 29.0803 157.232 28.9093C156.947 28.724 156.491 28.5744 155.864 28.4604L155.265 28.3535C154.524 28.211 153.847 28.0187 153.235 27.7764C152.622 27.5199 152.13 27.1708 151.76 26.729C151.389 26.2873 151.204 25.7173 151.204 25.019C151.204 23.9645 151.589 23.1594 152.358 22.6037C153.128 22.0337 154.139 21.7487 155.393 21.7487C156.576 21.7487 157.559 22.0123 158.343 22.5395C159.127 23.0668 159.64 23.7579 159.882 24.6129L157.381 25.3824C157.267 24.8409 157.032 24.4562 156.676 24.2282C156.334 24.0002 155.906 23.8862 155.393 23.8862C154.88 23.8862 154.489 23.9788 154.218 24.164C153.947 24.335 153.812 24.5773 153.812 24.8908C153.812 25.2328 153.954 25.4893 154.239 25.6603C154.524 25.817 154.909 25.9382 155.393 26.0237L155.992 26.1305C156.79 26.273 157.51 26.4654 158.151 26.7077C158.806 26.9357 159.319 27.2705 159.69 27.7123C160.075 28.1398 160.267 28.724 160.267 29.465C160.267 30.5765 159.861 31.4387 159.049 32.0514C158.251 32.6499 157.175 32.9492 155.821 32.9492ZM166.479 32.6499C165.781 32.6499 165.211 32.4362 164.769 32.0087C164.342 31.5669 164.128 30.9827 164.128 30.2559V24.2709H161.478V22.0479H164.128V18.7562H166.821V22.0479H169.728V24.2709H166.821V29.7857C166.821 30.2132 167.021 30.4269 167.42 30.4269H169.472V32.6499H166.479Z" fill="#272727"/>
</svg>
